<svg xmlns="http://www.w3.org/2000/svg" version="1.1" xmlns:xlink="http://www.w3.org/1999/xlink" xmlns:svgjs="http://svgjs.dev/svgjs" width="1440" height="560" preserveAspectRatio="none" viewBox="0 0 1440 560"><g mask="url(&quot;#SvgjsMask1000&quot;)" fill="none"><rect width="1440" height="560" x="0" y="0" fill="#0e2a47"></rect><path d="M 0,269 C 57.6,241.2 172.8,128.6 288,130 C 403.2,131.4 460.8,286.6 576,276 C 691.2,265.4 748.8,103.2 864,77 C 979.2,50.8 1036.8,137.8 1152,145 C 1267.2,152.2 1382.4,119.4 1440,113L1440 560L0 560z" fill="#184a7e"></path><path d="M 0,558 C 96,523.6 288,408.6 480,386 C 672,363.4 768,449.4 960,445 C 1152,440.6 1344,380.2 1440,364L1440 560L0 560z" fill="#2264ab"></path></g><defs><mask id="SvgjsMask1000"><rect width="1440" height="560" fill="#ffffff"></rect></mask></defs></svg>